<?xml version="1.0" encoding="utf-8"?>
<!-- Generator: Adobe Illustrator 21.0.0, SVG Export Plug-In . SVG Version: 6.00 Build 0)  -->
<svg version="1.1" id="Layer_1" xmlns="http://www.w3.org/2000/svg" xmlns:xlink="http://www.w3.org/1999/xlink" x="0px" y="0px"
	 viewBox="0 0 64 64" style="enable-background:new 0 0 64 64;" xml:space="preserve">
<style type="text/css">
	.st0{fill:#005870;}
</style>
<g>
	<path class="st0" d="M41,0C28.3,0,18,10.3,18,23c0,5.9,2.3,11.4,6,15.5l-3.2,3.2c-0.8-0.5-1.7-0.7-2.6-0.7c-1.3,0-2.5,0.5-3.5,1.4
		L1.4,55.7C0.5,56.6,0,57.8,0,59.1c0,1.3,0.5,2.5,1.4,3.5C2.4,63.5,3.6,64,4.9,64s2.5-0.5,3.5-1.4l13.4-13.4
		c0.9-0.9,1.4-2.1,1.4-3.5c0-1-0.3-2-0.9-2.8l3.1-3.1C29.5,43.7,35,46,41,46c12.7,0,23-10.3,23-23S53.7,0,41,0z M20.3,47.8L6.9,61.2
		c-0.5,0.5-1.3,0.8-2,0.8s-1.5-0.3-2-0.8c-0.5-0.5-0.8-1.3-0.8-2c0-0.8,0.3-1.5,0.8-2l13.4-13.4c0.5-0.5,1.3-0.8,2-0.8
		c0.8,0,1.5,0.3,2,0.8c0.5,0.5,0.8,1.3,0.8,2C21.1,46.5,20.8,47.2,20.3,47.8z M41,44c-11.6,0-21-9.4-21-21S29.4,2,41,2s21,9.4,21,21
		S52.6,44,41,44z"/>
	<path class="st0" d="M58.9,16.7c-0.9-2.7-2.5-5.1-4.5-7.1c-2-2-4.5-3.6-7.1-4.5c-0.5-0.2-1.1,0.1-1.3,0.6c-0.2,0.5,0.1,1.1,0.6,1.3
		c4.8,1.7,8.7,5.6,10.4,10.4c0.1,0.4,0.5,0.7,0.9,0.7c0.1,0,0.2,0,0.3-0.1C58.8,17.8,59.1,17.2,58.9,16.7z"/>
	<path class="st0" d="M50.4,28.8C50.4,28.8,50.4,28.8,50.4,28.8l-3.7-1c-0.3-0.1-0.6-0.3-0.6-0.3l0-2c0,0,0,0,0,0
		c1.3-1.5,2-3.5,2-5.6v-1.5c1.3-4.2,0.4-7.8-0.1-8.8c0,0,0,0,0,0c0,0,0,0,0-0.1c0,0,0,0,0,0c0,0,0,0,0,0c0,0,0,0,0,0c0,0,0,0,0,0
		c0,0,0,0,0,0c0,0,0,0,0,0c0,0,0,0,0-0.1c0,0,0,0,0,0c0,0,0,0-0.1,0c0,0,0,0,0,0c0,0,0,0-0.1,0c0,0,0,0,0,0c0,0,0,0-0.1,0
		c0,0,0,0,0,0c0,0,0,0-0.1,0c0,0,0,0,0,0c0,0,0,0,0,0c0,0,0,0,0,0c0,0,0,0-0.1,0c0,0,0,0,0,0c0,0,0,0-0.1,0c0,0,0,0,0,0
		c0,0,0,0-0.1,0c0,0,0,0,0,0c0,0,0,0-0.1,0c0,0,0,0,0,0c-1,0.1-2.1-0.1-3.4-0.4C41.3,8,38.8,7.4,36.6,9C34.5,9.2,33,11,33,13.4
		c0,1.7,0.8,4.8,1,5.5v0.8c0,2.2,0.7,4.1,1.9,5.6l0,2.2c-0.1,0.1-0.3,0.2-0.6,0.3l-3.7,1c0,0,0,0,0,0c-2.4,0.7-3.6,3-3.6,4.9v1.1
		c0,1.2,1,2.1,2.3,2.1L41,37c0,0,0,0,0,0s0,0,0,0l10.7,0c1.3,0,2.3-1,2.3-2.1v-1.1C54,31.8,52.8,29.5,50.4,28.8z M41,30.8l-3.5-2.1
		c0.3-0.3,0.4-0.7,0.4-1.2l0-0.4c0.9,0.5,2,0.9,3,0.9c1.1,0,2.1-0.3,3-0.8l0,0.4c0,0.5,0.2,0.9,0.5,1.3L41,30.8z M36,19.4
		c0-1,0.4-2.4,0.7-3.4c4.5,0.1,7.9,1.2,9.3,1.7v0.6c0,0,0,0,0,0v1.7c0,1.8-0.7,3.4-1.7,4.5c0,0,0,0,0,0c-0.9,1-2.1,1.5-3.3,1.5
		c-2.7,0-5-2.9-5-6.2V19.4z M37,11C37,11,37,11,37,11C37,11,37.1,11,37,11c0.1,0,0.1,0,0.1,0c0,0,0,0,0.1,0c0,0,0,0,0,0
		c0,0,0,0,0.1,0c0,0,0,0,0,0c0,0,0,0,0.1,0c0,0,0,0,0,0c0,0,0,0,0,0c0,0,0,0,0,0c0,0,0,0,0,0c0,0,0,0,0.1,0c0,0,0,0,0,0
		C39.1,9.6,41,10,43,10.5c1.1,0.3,2.2,0.5,3.3,0.5c0.3,1,0.5,2.7,0.2,4.7c-1.6-0.6-5.4-1.7-10.5-1.7c0,0,0,0,0,0c0,0,0,0-0.1,0
		c0,0,0,0,0,0c0,0,0,0-0.1,0c0,0,0,0,0,0c0,0,0,0,0,0c0,0,0,0-0.1,0c0,0,0,0,0,0c0,0,0,0-0.1,0c0,0,0,0,0,0c0,0,0,0-0.1,0
		c0,0,0,0,0,0c0,0,0,0,0,0c0,0,0,0-0.1,0c0,0,0,0,0,0c0,0,0,0-0.1,0.1c0,0,0,0,0,0c0,0,0,0-0.1,0.1c0,0,0,0,0,0c0,0,0,0,0,0
		c0,0,0,0,0,0c0,0,0,0,0,0c0,0,0,0,0,0c0,0,0,0,0,0c0,0,0,0,0,0c-0.1-0.5-0.1-0.9-0.1-1.2C35,12.3,35.6,11,37,11z M30.3,35
		c-0.2,0-0.3-0.1-0.3-0.1v-1.1c0-1.2,0.7-2.6,2.1-3l3.4-0.9l4.5,2.7V35L30.3,35z M52,34.9c0,0-0.1,0.1-0.3,0.1L42,35v-2.4l4.5-2.7
		l3.3,0.9c1.4,0.4,2.1,1.8,2.1,3L52,34.9L52,34.9z"/>
</g>
</svg>
